<?xml version="1.0" encoding="utf-8"?>
<!-- Generator: Adobe Illustrator 28.0.0, SVG Export Plug-In . SVG Version: 6.00 Build 0)  -->
<svg version="1.1" id="Calque_1" xmlns="http://www.w3.org/2000/svg" xmlns:xlink="http://www.w3.org/1999/xlink" x="0px" y="0px"
	 viewBox="0 0 100 97.7" style="enable-background:new 0 0 100 97.7;" xml:space="preserve">
<style type="text/css">
	.st0{fill:#1B1C1C;}
</style>
<g>
	<path class="st0" d="M22.3,89.7h55.3c4.4,0,8-3.6,8-8V25.8c0-4.4-3.6-8-8-8H69v-3.5c0-2.2-1.8-4-4-4c-2.2,0-4,1.8-4,4v3.5H38.9
		v-3.5c0-2.2-1.8-4-4-4s-4,1.8-4,4v3.5h-8.6c-4.4,0-8,3.6-8,8v55.8C14.3,86.1,17.9,89.7,22.3,89.7z M22.3,81.7V47.9h55.3v33.7
		L22.3,81.7L22.3,81.7z M30.9,25.8v5.5c0,2.2,1.8,4,4,4s4-1.8,4-4v-5.5h22.2v5.5c0,2.2,1.8,4,4,4c2.2,0,4-1.8,4-4v-5.5h8.6v14.1
		H22.3V25.8H30.9z"/>
</g>
</svg>
