<?xml version="1.0" encoding="utf-8"?>
<!-- Generator: Adobe Illustrator 28.0.0, SVG Export Plug-In . SVG Version: 6.00 Build 0)  -->
<svg version="1.1" id="Calque_1" xmlns="http://www.w3.org/2000/svg" xmlns:xlink="http://www.w3.org/1999/xlink" x="0px" y="0px"
	 viewBox="0 0 100 81.5" style="enable-background:new 0 0 100 81.5;" xml:space="preserve">
<style type="text/css">
	.st0{fill:#1B1C1C;}
</style>
<g>
	<path class="st0" d="M90.1,4.8L74.3,8.4c-15.9,3.5-32.7,3.5-48.6,0L9.9,4.8c-1.5-0.3-3.1,0.2-4,1.4c-1,1.2-1.1,2.9-0.4,4.3
		l9.1,18.2c0.5,1,1.4,1.7,2.5,2.1c2.1,0.6,4.1,1.1,6.2,1.6v11.5c-1.3-0.3-2.7-0.7-4-1.1c-2.1-0.6-4.3,0.6-4.9,2.7
		c-0.6,2.1,0.6,4.3,2.7,4.9c2.1,0.6,4.1,1.1,6.2,1.6v20.5c0,2.2,1.8,4,4,4s4-1.8,4-4V53.6c6.2,1,12.5,1.5,18.8,1.5
		s12.5-0.5,18.8-1.5v18.9c0,2.2,1.8,4,4,4s4-1.8,4-4V52c2.1-0.5,4.1-1,6.2-1.6c2.1-0.6,3.4-2.8,2.7-4.9s-2.8-3.4-4.9-2.7
		c-1.3,0.4-2.7,0.7-4,1.1V32.4c2.1-0.5,4.1-1,6.2-1.6c1.1-0.3,2-1.1,2.5-2.1l9.1-18.2c0.7-1.4,0.5-3-0.4-4.3
		C93.2,5.1,91.6,4.5,90.1,4.8z M68.8,45.5c-12.4,2.1-25.1,2.1-37.5,0V33.9c6.2,1,12.5,1.5,18.8,1.5s12.5-0.5,18.8-1.5V45.5z
		 M79.1,23.6c-2.3,0.6-4.6,1.2-6.9,1.6c-0.1,0-0.3,0-0.4,0.1c-14.4,2.8-29.1,2.8-43.5,0c-0.1,0-0.3-0.1-0.4-0.1
		c-2.3-0.5-4.6-1-6.9-1.6l-4.6-9.1l7.6,1.7C41,20,59,20,76,16.2l7.6-1.7L79.1,23.6z"/>
</g>
</svg>
