<?xml version="1.0" encoding="utf-8"?>
<!-- Generator: Adobe Illustrator 28.0.0, SVG Export Plug-In . SVG Version: 6.00 Build 0)  -->
<svg version="1.1" id="Calque_1" xmlns="http://www.w3.org/2000/svg" xmlns:xlink="http://www.w3.org/1999/xlink" x="0px" y="0px"
	 viewBox="0 0 12 12.2" style="enable-background:new 0 0 12 12.2;" xml:space="preserve">
<g>
	<path d="M5.1,2.6c-1.2,0-2.2,1-2.2,2.2c0,0.2,0.2,0.4,0.4,0.4c0.2,0,0.4-0.2,0.4-0.4c0-0.8,0.7-1.5,1.5-1.5c0.2,0,0.4-0.2,0.4-0.4
		S5.3,2.6,5.1,2.6z"/>
	<path d="M10.2,8.5l-2-2C8.5,6,8.6,5.5,8.6,4.9c0-1.9-1.6-3.5-3.5-3.5S1.5,2.9,1.5,4.9s1.6,3.5,3.5,3.5c0.6,0,1.2-0.1,1.7-0.4l2,2
		c0.2,0.2,0.5,0.3,0.7,0.3c0.3,0,0.5-0.1,0.7-0.3C10.6,9.5,10.5,8.9,10.2,8.5z M2.3,4.9c0-1.5,1.2-2.8,2.8-2.8s2.8,1.2,2.8,2.8
		S6.6,7.7,5.1,7.7S2.3,6.4,2.3,4.9z M9.6,9.4c-0.1,0.1-0.4,0-0.4,0L7.4,7.6c0.1-0.1,0.3-0.3,0.4-0.4L9.6,9C9.7,9.1,9.8,9.3,9.6,9.4z
		"/>
</g>
</svg>
