<?xml version="1.0" encoding="utf-8"?>
<!-- Generator: Adobe Illustrator 28.0.0, SVG Export Plug-In . SVG Version: 6.00 Build 0)  -->
<svg version="1.1" id="Calque_1" xmlns="http://www.w3.org/2000/svg" xmlns:xlink="http://www.w3.org/1999/xlink" x="0px" y="0px"
	 viewBox="0 0 64 67.6" style="enable-background:new 0 0 64 67.6;" xml:space="preserve">
<style type="text/css">
	.st0{fill:#1B1C1C;}
</style>
<path class="st0" d="M23,9.6c2.8-1.4,5.9-2.1,9-2c3.1-0.1,6.2,0.6,9,2c0.5,0.3,1,0.4,1.6,0.4h0.3l-8-7.4c-1.6-1.5-4-1.5-5.6,0
	l-8,7.4h0.2C22,10,22.5,9.9,23,9.6L23,9.6z"/>
<rect x="17.9" y="19.7" class="st0" width="28.2" height="33.8"/>
<path class="st0" d="M56.5,60.6c-0.1-0.7-0.6-1.4-1.2-1.8c-1.2-0.8-2-2.2-2-3.7v-6.5c0-1.2,0.2-2.3,0.7-3.4c1-2.8,1.4-5.7,1.4-8.6
	c0-2.9-0.4-5.8-1.4-8.6c-0.4-1.1-0.7-2.2-0.7-3.4v-6.5c0-1.5,0.8-2.9,2-3.7c0.6-0.4,1-1.1,1.2-1.8c0.1-0.9-0.1-1.9-0.7-2.6
	c0,0,0-0.1-0.1-0.1c-1.8-1.3-3.7-0.7-4.5,0.5c-0.8,1.2-2.2,2-3.8,2h-5c-1,0-1.9-0.2-2.7-0.7C37.4,10.5,34.7,10,32,10
	c-2.7-0.1-5.4,0.5-7.8,1.7c-0.8,0.5-1.8,0.7-2.7,0.8h-5.1c-1.5,0-2.9-0.8-3.7-2c-0.6-0.8-1.5-1.2-2.4-1.2c-0.8,0-1.5,0.3-2.1,0.7
	c0,0-0.1,0.1-0.1,0.1c-0.6,0.7-0.8,1.7-0.7,2.6C7.6,13.3,8,14,8.6,14.4c1.2,0.8,2,2.2,2,3.7v6.6c0,1.1-0.2,2.3-0.7,3.4
	c-1,2.8-1.4,5.7-1.4,8.6C8.6,39.5,9,42.4,10,45.1c0.4,1.1,0.6,2.2,0.7,3.4V55c0,1.5-0.8,2.9-2,3.7c-0.6,0.4-1.1,1.1-1.2,1.8
	c-0.1,0.9,0.1,1.9,0.7,2.6c0,0,0.1,0.1,0.1,0.1c1.8,1.3,3.7,0.7,4.5-0.5c0.8-1.2,2.2-2,3.8-2h5.7c0.9,0,1.8,0.2,2.6,0.6
	c2.3,1,4.8,1.5,7.3,1.4c2.5,0,5-0.4,7.3-1.4c0.8-0.4,1.7-0.6,2.6-0.6h5.7c1.5,0,2.9,0.8,3.8,2c0.8,1.2,2.7,1.8,4.5,0.5
	c0,0,0.1,0,0.1-0.1C56.5,62.5,56.7,61.5,56.5,60.6z M48.5,54.7c0,0.7-0.5,1.2-1.2,1.2H16.7c-0.7,0-1.2-0.5-1.2-1.2V18.5
	c0-0.7,0.5-1.2,1.2-1.2h30.6c0.7,0,1.2,0.5,1.2,1.2C48.5,18.5,48.5,54.7,48.5,54.7z"/>
</svg>
