<?xml version="1.0" encoding="utf-8"?>
<!-- Generator: Adobe Illustrator 28.0.0, SVG Export Plug-In . SVG Version: 6.00 Build 0)  -->
<svg version="1.1" id="Calque_1" xmlns="http://www.w3.org/2000/svg" xmlns:xlink="http://www.w3.org/1999/xlink" x="0px" y="0px"
	 viewBox="0 0 512 498" style="enable-background:new 0 0 512 498;" xml:space="preserve">
<path d="M256.4,280.6c-31.7,0-62.5,10.9-87.1,30.8c-12,9.7-22.3,21.3-30.5,34.3c-12.6,20.1-19.9,43.1-21,66.8
	c-0.2,4-0.7,8.3,0.8,12.1c2.2,5.5,7.5,9.2,13.5,9.2h248.4c4,0,7.8-1.6,10.5-4.5c2.7-2.9,4.1-6.8,4-10.8
	c-0.4-74-58.8-134.6-132.7-137.7C260.4,280.7,258.4,280.6,256.4,280.6z M147.6,404.8c2.7-20.5,11.2-39.7,24.4-55.6
	c6.5-7.8,14-14.6,22.3-20.4c50-34.2,118.3-21.5,152.5,28.5c8.2,12,14,25.6,16.9,39.8c0.5,2.5,0.9,5,1.3,7.5L147.6,404.8z"/>
<path d="M340.9,182.1c0-46.5-37.8-84.2-84.3-84.1c-46.5,0-84.2,37.8-84.1,84.3s37.8,84.2,84.3,84.1c41.5,0,76.8-30.3,83.1-71.3
	C340.5,190.8,340.9,186.5,340.9,182.1z M200.9,182.1c0-30.5,24.8-55.3,55.4-55.2s55.3,24.8,55.2,55.4s-24.8,55.3-55.4,55.2
	c-27.2,0-50.4-19.9-54.6-46.8C201.1,187.9,200.8,185,200.9,182.1L200.9,182.1z"/>
</svg>
