<?xml version="1.0" encoding="utf-8"?>
<!-- Generator: Adobe Illustrator 28.0.0, SVG Export Plug-In . SVG Version: 6.00 Build 0)  -->
<svg version="1.1" id="Calque_1" xmlns="http://www.w3.org/2000/svg" xmlns:xlink="http://www.w3.org/1999/xlink" x="0px" y="0px"
	 viewBox="0 0 185 185" style="enable-background:new 0 0 185 185;" xml:space="preserve">
<style type="text/css">
	.st0{fill:#1B1C1C;}
</style>
<g>
	<path class="st0" d="M172.4,77.1c-1.3-1.3-3.1-2.1-5.1-2.1h-10.7c-0.6-1.9-1.3-3.7-2-5.5c-0.8-1.8-1.6-3.6-2.5-5.3l7.6-7.6
		c1.4-1.4,2.1-3.3,2.1-5.1s-0.7-3.7-2.1-5.1l-17-17c-1.4-1.4-3.3-2.1-5.1-2.1c-1.8,0-3.7,0.7-5.1,2.1l-7.6,7.6
		c-1.8-0.9-3.5-1.8-5.3-2.5c-1.7-0.8-3.5-1.4-5.4-2V21.8c0-1.9-0.7-3.6-1.9-4.9c-0.1-0.1-0.1-0.1-0.2-0.2c-1.3-1.3-3.1-2.1-5.1-2.1
		H83c-2,0-3.8,0.8-5.1,2.1c-1.3,1.3-2.1,3.1-2.1,5.1v10.6c-1.8,0.6-3.6,1.3-5.4,2c-1.8,0.8-3.6,1.6-5.3,2.5l-7.6-7.6
		c-1.4-1.4-3.3-2.1-5.1-2.1c-1.8,0-3.7,0.7-5.1,2.1l-17,17c-1.4,1.4-2.1,3.3-2.1,5.1c0,1.8,0.7,3.7,2.1,5.1l7.6,7.6
		c-0.9,1.7-1.8,3.5-2.5,5.3c-0.8,1.8-1.4,3.6-2,5.5H22.7c-2,0-3.8,0.8-5.1,2.1c-1.3,1.3-2.1,3.1-2.1,5.1v24.2c0,2,0.8,3.8,2.1,5.1
		c1.3,1.3,3.1,2.1,5.1,2.1h10.7c0.6,1.9,1.3,3.7,2,5.5c0.8,1.8,1.6,3.6,2.5,5.3l-7.6,7.6c-1.4,1.4-2.1,3.3-2.1,5.1
		c0,1.8,0.7,3.7,2.1,5.1l17,17c1.4,1.4,3.3,2.1,5.1,2.1c1.8,0,3.7-0.7,5.1-2.1l7.6-7.6c1.8,0.9,3.5,1.8,5.3,2.5
		c1.7,0.8,3.5,1.4,5.4,2v10.7c0,2,0.8,3.8,2.1,5.1c1.3,1.3,3.1,2.1,5.1,2.1h24c2,0,3.8-0.8,5.1-2.1s2.1-3.1,2.1-5.1V156
		c1.8-0.6,3.6-1.3,5.4-2c1.8-0.8,3.6-1.6,5.3-2.5l7.6,7.6c1.4,1.4,3.3,2.1,5.1,2.1c1.8,0,3.7-0.7,5.1-2.1l17-17
		c1.4-1.4,2.1-3.3,2.1-5.1s-0.6-3.5-1.9-4.9c-0.1-0.1-0.1-0.1-0.2-0.2l-7.6-7.6c0.9-1.7,1.8-3.5,2.5-5.3c0.8-1.8,1.4-3.6,2-5.5h10.7
		c2,0,3.8-0.8,5.1-2.1c1.3-1.3,2.1-3.1,2.1-5.1V82.2C174.5,80.2,173.7,78.4,172.4,77.1z M121.6,120.6c-6.8,6.8-16.2,11-26.6,11
		c-10.4,0-19.8-4.2-26.6-11c-6.8-6.8-11-16.2-11-26.6s4.2-19.8,11-26.6c6.8-6.7,16.2-11,26.6-11s19.8,4.2,26.6,11
		c6.8,6.8,11,16.2,11,26.6C132.6,104.4,128.4,113.8,121.6,120.6z"/>
</g>
</svg>
