<?xml version="1.0" encoding="utf-8"?>
<!-- Generator: Adobe Illustrator 28.0.0, SVG Export Plug-In . SVG Version: 6.00 Build 0)  -->
<svg version="1.1" id="Calque_1" xmlns="http://www.w3.org/2000/svg" xmlns:xlink="http://www.w3.org/1999/xlink" x="0px" y="0px"
	 viewBox="0 0 391.4 135.7" style="enable-background:new 0 0 391.4 135.7;" xml:space="preserve">
<style type="text/css">
	.st0{fill:#1D1D1B;}
	.st1{fill:#D90D15;}
</style>
<path class="st0" d="M40.2,45.8c-0.9,0.6-1.8,1.1-2.8,1.4c-1.7,0.6-3.5,0.9-5.3,0.9c-2,0-3.8-0.3-5.5-1s-3.1-1.6-4.4-2.8
	S20,41.6,19.3,40c-0.7-1.6-1-3.4-1-5.3s0.3-3.7,1-5.3c0.7-1.6,1.6-3,2.9-4.2s2.7-2.1,4.4-2.8c1.7-0.7,3.5-1,5.5-1s3.8,0.3,5.4,1
	s3.2,1.7,4.6,3l3.1-3.1c-1.6-1.8-3.5-3.1-5.8-4S34.7,17,31.9,17s-5.2,0.4-7.4,1.3c-2.2,0.9-4.2,2.1-5.9,3.7c-1.7,1.6-3,3.5-3.9,5.6
	s-1.4,4.5-1.4,7.1s0.5,4.9,1.4,7.1s2.2,4,3.9,5.6c1.6,1.6,3.6,2.8,5.8,3.7c2.2,0.9,4.7,1.3,7.4,1.3c2.4,0,4.8-0.4,7.1-1.1
	s4.3-1.8,6-3.3V34.5h-4.8L40.2,45.8L40.2,45.8z"/>
<path class="st0" d="M86.2,51.6h5.2L75.6,17h-4.9L55.1,51.6h5.1L64,43h18.4C82.4,43,86.2,51.6,86.2,51.6z M65.7,39l7.5-17l7.5,17
	H65.7z"/>
<polygon class="st1" points="109.1,22 139.4,22 139.4,17 104.8,17 104.8,40.7 109.1,40.7 "/>
<polygon class="st0" points="256.7,113.7 226.4,113.7 226.4,118.7 261,118.7 261,95 256.7,95 "/>
<polygon class="st0" points="276.9,114.4 276.9,103.2 294.2,103.2 294.2,99 276.9,99 276.9,88.4 296.4,88.4 296.4,84.1 271.9,84.1 
	271.9,118.7 297,118.7 297,114.4 "/>
<path class="st0" d="M337.6,118.7l-8.2-11.6c0.3-0.1,0.7-0.2,1-0.4c2.1-1,3.8-2.3,4.9-4.1s1.7-3.9,1.7-6.4s-0.6-4.7-1.7-6.5
	c-1.1-1.8-2.8-3.2-4.9-4.2c-2.1-1-4.7-1.4-7.8-1.4h-13.5v34.6h4.9v-10.5h8.5c0.8,0,1.5,0,2.2-0.1l7.4,10.6L337.6,118.7L337.6,118.7z
	 M322.4,104H314V88.4h8.4c3.2,0,5.6,0.7,7.2,2s2.5,3.3,2.5,5.7s-0.8,4.4-2.5,5.8S325.6,104,322.4,104z"/>
<polygon class="st0" points="377.1,84.1 372.2,84.1 361.1,102.3 350,84.1 344.7,84.1 358.4,106.6 358.4,118.7 363.3,118.7 
	363.3,106.7 "/>
<g>
	<g>
		<path class="st0" d="M143.8,57.6c-0.6,0.5-1.3,0.8-2,1.1c-1,0.3-2.1,0.5-3.3,0.5c-1.2,0-2.4-0.2-3.4-0.6s-2-1-2.7-1.8
			s-1.4-1.7-1.8-2.7c-0.4-1-0.6-2.1-0.6-3.3s0.2-2.3,0.6-3.3s1-1.9,1.8-2.7c0.8-0.8,1.7-1.3,2.7-1.8c1.1-0.4,2.2-0.6,3.4-0.6
			c1.2,0,2.3,0.2,3.3,0.5c1,0.4,1.9,1,2.8,1.8l1.3-1.3c-0.9-1-2-1.7-3.3-2.2s-2.7-0.7-4.2-0.7s-2.9,0.2-4.2,0.8s-2.4,1.2-3.4,2.2
			c-1,0.9-1.7,2-2.2,3.3c-0.5,1.2-0.8,2.6-0.8,4.1s0.3,2.8,0.8,4.1s1.3,2.3,2.2,3.3s2.1,1.6,3.4,2.2c1.3,0.5,2.7,0.8,4.2,0.8
			c1.4,0,2.8-0.2,4-0.7s2.4-1.1,3.4-1.9v-7.7h-2.1L143.8,57.6L143.8,57.6z"/>
		<path class="st0" d="M168,60.9l-4.9-6.9c0.3-0.1,0.5-0.2,0.8-0.3c1.2-0.5,2.2-1.3,2.8-2.4s1-2.2,1-3.7s-0.3-2.7-1-3.7
			s-1.6-1.8-2.8-2.4c-1.2-0.5-2.7-0.8-4.4-0.8h-7.6v20.2h2.1v-6.4h5.4c0.6,0,1.1,0,1.6-0.1l4.6,6.5L168,60.9L168,60.9z M159.4,52.7
			H154V42.6h5.4c2,0,3.6,0.4,4.6,1.3s1.6,2.1,1.6,3.8s-0.5,2.8-1.6,3.7S161.4,52.7,159.4,52.7L159.4,52.7z"/>
		<path class="st0" d="M187.8,60.9h2.2l-9.2-20.2h-2.1l-9.2,20.2h2.2l2.4-5.4h11.3L187.8,60.9L187.8,60.9z M174.9,53.8l4.9-10.9
			l4.9,10.8L174.9,53.8L174.9,53.8z"/>
		<polygon class="st0" points="208.1,40.8 208.1,57.1 195.1,40.8 193.4,40.8 193.4,60.9 195.5,60.9 195.5,44.6 208.5,60.9 
			210.2,60.9 210.2,40.8 		"/>
		<path class="st0" d="M216.8,60.9V40.8h8.2c2.1,0,4,0.4,5.7,1.3c1.6,0.8,2.9,2,3.8,3.6s1.4,3.3,1.4,5.2s-0.4,3.7-1.4,5.2
			c-0.9,1.5-2.2,2.7-3.8,3.6c-1.6,0.8-3.5,1.3-5.7,1.3L216.8,60.9L216.8,60.9z M218.9,59.1h6c1.8,0,3.3-0.3,4.6-1
			c1.3-0.7,2.3-1.7,3.1-2.9c0.7-1.2,1.1-2.7,1.1-4.3s-0.4-3.1-1.1-4.3c-0.7-1.2-1.8-2.2-3.1-2.9c-1.3-0.7-2.9-1-4.6-1h-6V59.1z"/>
	</g>
	<g>
		<path class="st0" d="M145.8,92.4h2.2l-9.2-20.2h-2.1l-9.2,20.2h2.2l2.4-5.4h11.3L145.8,92.4L145.8,92.4z M132.9,85.3l4.9-10.8
			l4.9,10.8H132.9L132.9,85.3z"/>
		<polygon class="st0" points="166.8,72.2 166.8,88.6 153.8,72.2 152,72.2 152,92.4 154.2,92.4 154.2,76.1 167.1,92.4 168.9,92.4 
			168.9,72.2 		"/>
		<path class="st0" d="M190.1,88.9c-0.6,0.5-1.3,0.8-2,1.1c-1,0.3-2.1,0.5-3.3,0.5c-1.2,0-2.4-0.2-3.4-0.6s-2-1-2.7-1.8
			s-1.4-1.7-1.8-2.7s-0.6-2.1-0.6-3.3s0.2-2.3,0.6-3.3s1-1.9,1.8-2.7s1.7-1.3,2.7-1.8c1.1-0.4,2.2-0.6,3.4-0.6
			c1.2,0,2.3,0.2,3.3,0.6s1.9,1,2.8,1.8l1.3-1.3c-0.9-1-2-1.7-3.3-2.2s-2.7-0.7-4.2-0.7s-2.9,0.2-4.2,0.8s-2.4,1.2-3.4,2.2
			c-1,0.9-1.7,2-2.2,3.3s-0.8,2.6-0.8,4.1s0.3,2.8,0.8,4.1s1.3,2.3,2.2,3.3c0.9,0.9,2.1,1.6,3.4,2.2c1.3,0.5,2.7,0.8,4.2,0.8
			c1.4,0,2.8-0.2,4-0.7s2.4-1.1,3.4-1.9v-7.7h-2.1L190.1,88.9L190.1,88.9z"/>
		<polygon class="st0" points="201.4,90.6 201.4,72.2 199.2,72.2 199.2,92.4 212.7,92.4 212.7,90.6 		"/>
		<polygon class="st0" points="223.7,90.6 223.7,83.1 234.1,83.1 234.1,81.3 223.7,81.3 223.7,74.1 235.4,74.1 235.4,72.2 
			221.6,72.2 221.6,92.4 235.8,92.4 235.8,90.6 		"/>
	</g>
</g>
</svg>
